<?xml version="1.0" encoding="UTF-8" standalone="no"?>
<svg
   xmlns:dc="http://purl.org/dc/elements/1.1/"
   xmlns:cc="http://creativecommons.org/ns#"
   xmlns:rdf="http://www.w3.org/1999/02/22-rdf-syntax-ns#"
   xmlns:svg="http://www.w3.org/2000/svg"
   xmlns="http://www.w3.org/2000/svg"
   id="svg8"
   version="1.1"
   viewBox="0 0 287.76337 170.53526"
   height="170.53526mm"
   width="287.76337mm">
  <defs
     id="defs2" />
  <metadata
     id="metadata5">
    <rdf:RDF>
      <cc:Work
         rdf:about="">
        <dc:format>image/svg+xml</dc:format>
        <dc:type
           rdf:resource="http://purl.org/dc/dcmitype/StillImage" />
        <dc:title></dc:title>
      </cc:Work>
    </rdf:RDF>
  </metadata>
  <g
     transform="translate(-8.3038472,-102.04673)"
     id="layer1">
    <path
       id="path16"
       d="m 50.78897,225.47471 c 4.314736,0.0581 8.688806,0.86037 12.893418,2.4855 8.529702,3.29682 14.736459,9.35489 17.870164,16.47606 -8.019486,2.81033 -17.250392,2.90158 -25.778737,-0.39473 -4.204613,-1.62513 -7.844482,-3.92032 -10.828928,-6.68344 -3.073855,-2.84338 -5.452919,-6.18231 -7.042588,-9.79314 4.066114,-1.4248 8.444751,-2.1518 12.886671,-2.09025 z"
       style="fill:#00aad4;fill-opacity:0.22119816;stroke-width:0.13904618" />
    <path
       id="path16-3"
       d="m 30.577013,251.53607 c 4.314778,0.0557 8.6894,0.85565 12.895136,2.47849 8.53198,3.29219 14.742932,9.34688 17.881561,16.46634 -8.017539,2.8147 -17.248378,2.91095 -25.779007,-0.3807 -4.205735,-1.62285 -7.84719,-3.91607 -10.83355,-6.67757 -3.075821,-2.8417 -5.457196,-6.17933 -7.049362,-9.7893 4.065127,-1.427 8.443259,-2.15639 12.885222,-2.09726 z"
       style="fill:#80e5ff;fill-opacity:0.20737328;stroke-width:0.13904618" />
    <path
       id="path16-6"
       d="m 43.843487,168.7105 c 4.314736,0.0581 8.68881,0.86037 12.893421,2.48549 8.5297,3.29683 14.736458,9.35489 17.870162,16.47606 -8.019485,2.81034 -17.250392,2.90158 -25.778739,-0.39472 -4.20461,-1.62513 -7.844481,-3.92033 -10.828927,-6.68345 -3.073856,-2.84338 -5.452919,-6.18231 -7.042589,-9.79313 4.066115,-1.4248 8.444752,-2.1518 12.886672,-2.09025 z"
       style="fill:#00aad4;fill-opacity:0.22119816;stroke-width:0.13904618" />
    <path
       id="path16-3-7"
       d="m 24.893453,193.65313 c 4.31478,0.0557 8.689405,0.85565 12.895138,2.47848 8.531981,3.29218 14.742932,9.34688 17.88156,16.46634 -8.017538,2.8147 -17.248376,2.91096 -25.779006,-0.3807 -4.205735,-1.62284 -7.84719,-3.91606 -10.83355,-6.67756 -3.075821,-2.84171 -5.457196,-6.17935 -7.049362,-9.7893 4.065126,-1.42702 8.443258,-2.1564 12.88522,-2.09726 z"
       style="fill:#80e5ff;fill-opacity:0.20737328;stroke-width:0.13904618" />
    <path
       style="fill:#00aad4;fill-opacity:0.22119816;stroke-width:0.13904616"
       d="m 122.09103,225.47463 c 4.31473,0.0581 8.6888,0.86037 12.89342,2.4855 8.5297,3.29682 14.73646,9.3549 17.87016,16.47606 -8.01948,2.81033 -17.25039,2.90157 -25.77873,-0.39473 -4.20462,-1.62513 -7.84449,-3.92032 -10.82894,-6.68344 -3.07385,-2.84338 -5.45291,-6.18232 -7.04258,-9.79314 4.06611,-1.4248 8.44475,-2.15181 12.88667,-2.09025 z"
       id="path16-7" />
    <path
       style="fill:#80e5ff;fill-opacity:0.20737328;stroke-width:0.13904616"
       d="m 101.87906,251.53599 c 4.31479,0.0557 8.68941,0.85565 12.89515,2.47849 8.53198,3.29218 14.74293,9.34688 17.88155,16.46634 -8.01753,2.8147 -17.24837,2.91096 -25.77899,-0.38071 -4.20574,-1.62284 -7.847204,-3.91606 -10.833546,-6.67755 -3.075825,-2.84172 -5.457193,-6.17935 -7.049365,-9.78931 4.065129,-1.427 8.443262,-2.15639 12.885201,-2.09726 z"
       id="path16-3-0" />
    <path
       style="fill:#00aad4;fill-opacity:0.22119816;stroke-width:0.13904616"
       d="m 115.14554,168.71041 c 4.31474,0.0581 8.68881,0.86037 12.89342,2.4855 8.52971,3.29682 14.73647,9.3549 17.87017,16.47606 -8.01949,2.81034 -17.2504,2.90158 -25.77874,-0.39473 -4.20462,-1.62512 -7.84448,-3.92032 -10.82892,-6.68344 -3.07387,-2.84338 -5.45292,-6.18231 -7.0426,-9.79314 4.06611,-1.42479 8.44475,-2.1518 12.88667,-2.09025 z"
       id="path16-6-9" />
    <path
       style="fill:#80e5ff;fill-opacity:0.20737328;stroke-width:0.13904616"
       d="m 96.195521,193.65305 c 4.314779,0.0557 8.689399,0.85564 12.895129,2.47848 8.53198,3.29219 14.74293,9.34688 17.88156,16.46634 -8.01754,2.8147 -17.24838,2.91095 -25.77901,-0.3807 -4.205724,-1.62284 -7.847167,-3.91607 -10.833535,-6.67756 -3.075826,-2.84171 -5.457194,-6.17935 -7.049366,-9.7893 4.06513,-1.42701 8.443263,-2.1564 12.885222,-2.09726 z"
       id="path16-3-7-3" />
    <path
       style="fill:#00aad4;fill-opacity:0.22119816;stroke-width:0.13904616"
       d="m 194.02075,225.47503 c 4.31473,0.0581 8.68881,0.86037 12.89341,2.4855 8.5297,3.29682 14.73646,9.3549 17.87015,16.47606 -8.01947,2.81033 -17.25038,2.90157 -25.77873,-0.39473 -4.2046,-1.62513 -7.84448,-3.92032 -10.82892,-6.68344 -3.07386,-2.84338 -5.45292,-6.18232 -7.04259,-9.79314 4.06612,-1.4248 8.44476,-2.15181 12.88668,-2.09025 z"
       id="path16-60" />
    <path
       style="fill:#80e5ff;fill-opacity:0.20737328;stroke-width:0.13904616"
       d="m 173.80879,251.53639 c 4.31477,0.0557 8.6894,0.85565 12.89513,2.47849 8.53198,3.29218 14.74294,9.34688 17.88156,16.46634 -8.01753,2.8147 -17.24837,2.91096 -25.77901,-0.38071 -4.20572,-1.62284 -7.84718,-3.91606 -10.83355,-6.67755 -3.07581,-2.84172 -5.45719,-6.17935 -7.04936,-9.78931 4.06512,-1.427 8.44326,-2.15639 12.88523,-2.09726 z"
       id="path16-3-6" />
    <path
       style="fill:#00aad4;fill-opacity:0.22119816;stroke-width:0.13904616"
       d="m 187.07526,168.71081 c 4.31474,0.0581 8.68881,0.86037 12.89341,2.4855 8.5297,3.29683 14.73647,9.3549 17.87018,16.47606 -8.01949,2.81034 -17.25041,2.90158 -25.77874,-0.39473 -4.20462,-1.62512 -7.84449,-3.92032 -10.82894,-6.68344 -3.07385,-2.84338 -5.45292,-6.18231 -7.04258,-9.79313 4.0661,-1.4248 8.44475,-2.1518 12.88667,-2.09026 z"
       id="path16-6-2" />
    <path
       style="fill:#80e5ff;fill-opacity:0.20737328;stroke-width:0.13904616"
       d="m 168.12522,193.65345 c 4.31479,0.0557 8.68941,0.85564 12.89514,2.47848 8.53199,3.29219 14.74294,9.34688 17.88155,16.46634 -8.01753,2.8147 -17.24837,2.91095 -25.779,-0.3807 -4.20572,-1.62284 -7.84718,-3.91607 -10.83354,-6.67756 -3.07582,-2.84171 -5.4572,-6.17935 -7.04937,-9.7893 4.06513,-1.42701 8.44327,-2.1564 12.88522,-2.09726 z"
       id="path16-3-7-6" />
    <path
       id="path16-1"
       d="m 41.401026,102.05042 c 4.314735,0.0581 8.688805,0.86037 12.893418,2.4855 8.529701,3.29682 14.736458,9.35489 17.870162,16.47606 -8.019487,2.81033 -17.250392,2.90158 -25.778735,-0.39473 -4.204615,-1.62513 -7.844485,-3.92032 -10.828935,-6.68344 -3.07385,-2.84338 -5.45292,-6.18231 -7.04258,-9.79314 4.06611,-1.4248 8.44475,-2.1518 12.88667,-2.09025 z"
       style="fill:#00aad4;fill-opacity:0.22119816;stroke-width:0.13904618" />
    <path
       id="path16-3-8"
       d="m 21.189066,128.11179 c 4.31478,0.0557 8.6894,0.85565 12.89514,2.47849 8.53198,3.29219 14.74293,9.34688 17.881558,16.46634 -8.017538,2.8147 -17.248378,2.91095 -25.779008,-0.3807 -4.20573,-1.62285 -7.84719,-3.91607 -10.83355,-6.67757 -3.07582,-2.8417 -5.4571997,-6.17933 -7.0493588,-9.7893 4.0651288,-1.427 8.4432588,-2.15639 12.8852188,-2.09726 z"
       style="fill:#80e5ff;fill-opacity:0.20737328;stroke-width:0.13904618" />
    <path
       style="fill:#00aad4;fill-opacity:0.22119816;stroke-width:0.13904616"
       d="m 112.70309,102.05034 c 4.31473,0.0581 8.6888,0.86037 12.89342,2.4855 8.5297,3.29682 14.73645,9.3549 17.87015,16.47607 -8.01948,2.81033 -17.25038,2.90157 -25.77872,-0.39473 -4.20462,-1.62514 -7.84449,-3.92033 -10.82894,-6.68345 -3.07385,-2.84338 -5.45291,-6.18232 -7.042577,-9.79314 4.066107,-1.4248 8.444747,-2.15181 12.886667,-2.09025 z"
       id="path16-7-2" />
    <path
       style="fill:#80e5ff;fill-opacity:0.20737328;stroke-width:0.13904616"
       d="m 92.491128,128.11171 c 4.314788,0.0557 8.689402,0.85565 12.895142,2.47849 8.53198,3.29218 14.74293,9.34688 17.88155,16.46634 -8.01753,2.8147 -17.24837,2.91096 -25.778983,-0.38071 -4.20574,-1.62284 -7.847211,-3.91606 -10.833558,-6.67755 -3.075826,-2.84172 -5.457192,-6.17935 -7.049365,-9.78931 4.06513,-1.427 8.443262,-2.15639 12.885214,-2.09726 z"
       id="path16-3-0-0" />
    <path
       style="fill:#00aad4;fill-opacity:0.22119816;stroke-width:0.13904616"
       d="m 184.63281,102.05074 c 4.31473,0.0581 8.68881,0.86037 12.89341,2.4855 8.5297,3.29682 14.73646,9.3549 17.87015,16.47607 -8.01947,2.81033 -17.25038,2.90157 -25.77873,-0.39473 -4.2046,-1.62513 -7.84448,-3.92032 -10.82892,-6.68345 -3.07386,-2.84338 -5.45292,-6.18232 -7.04259,-9.79314 4.06612,-1.4248 8.44476,-2.15181 12.88668,-2.09025 z"
       id="path16-60-7" />
    <path
       style="fill:#80e5ff;fill-opacity:0.20737328;stroke-width:0.13904616"
       d="m 164.42085,128.11211 c 4.31477,0.0557 8.6894,0.85565 12.89513,2.47849 8.53198,3.29218 14.74294,9.34688 17.88156,16.46634 -8.01753,2.8147 -17.24837,2.91096 -25.77901,-0.38071 -4.20572,-1.62284 -7.84718,-3.91606 -10.83355,-6.67755 -3.07581,-2.84172 -5.4572,-6.17935 -7.04937,-9.78931 4.06513,-1.427 8.44327,-2.15639 12.88524,-2.09726 z"
       id="path16-3-6-5" />
    <path
       style="fill:#00aad4;fill-opacity:0.22119816;stroke-width:0.13904616"
       d="m 265.30364,225.47503 c 4.31473,0.0581 8.68881,0.86037 12.89341,2.4855 8.5297,3.29682 14.73646,9.3549 17.87015,16.47606 -8.01947,2.81033 -17.25038,2.90157 -25.77873,-0.39473 -4.2046,-1.62513 -7.84448,-3.92032 -10.82892,-6.68344 -3.07386,-2.84338 -5.45292,-6.18232 -7.04259,-9.79314 4.06612,-1.4248 8.44476,-2.15181 12.88668,-2.09025 z"
       id="path16-60-2" />
    <path
       style="fill:#80e5ff;fill-opacity:0.20737328;stroke-width:0.13904616"
       d="m 245.09168,251.53639 c 4.31477,0.0557 8.6894,0.85565 12.89513,2.47849 8.53198,3.29218 14.74294,9.34688 17.88156,16.46634 -8.01753,2.8147 -17.24837,2.91096 -25.77901,-0.38071 -4.20572,-1.62284 -7.84718,-3.91606 -10.83355,-6.67755 -3.07581,-2.84172 -5.45719,-6.17935 -7.04936,-9.78931 4.06512,-1.427 8.44326,-2.15639 12.88523,-2.09726 z"
       id="path16-3-6-8" />
    <path
       style="fill:#00aad4;fill-opacity:0.22119816;stroke-width:0.13904616"
       d="m 258.35815,168.71081 c 4.31474,0.0581 8.68881,0.86037 12.89341,2.4855 8.5297,3.29683 14.73647,9.3549 17.87018,16.47606 -8.01949,2.81034 -17.25041,2.90158 -25.77874,-0.39473 -4.20462,-1.62512 -7.84449,-3.92032 -10.82894,-6.68344 -3.07385,-2.84338 -5.45292,-6.18231 -7.04258,-9.79313 4.0661,-1.4248 8.44475,-2.1518 12.88667,-2.09026 z"
       id="path16-6-2-9" />
    <path
       style="fill:#80e5ff;fill-opacity:0.20737328;stroke-width:0.13904616"
       d="m 239.40811,193.65345 c 4.31479,0.0557 8.68941,0.85564 12.89514,2.47848 8.53199,3.29219 14.74294,9.34688 17.88155,16.46634 -8.01753,2.8147 -17.24837,2.91095 -25.779,-0.3807 -4.20572,-1.62284 -7.84718,-3.91607 -10.83354,-6.67756 -3.07582,-2.84171 -5.4572,-6.17935 -7.04937,-9.7893 4.06513,-1.42701 8.44327,-2.1564 12.88522,-2.09726 z"
       id="path16-3-7-6-7" />
    <path
       style="fill:#00aad4;fill-opacity:0.22119816;stroke-width:0.13904616"
       d="m 255.9157,102.05074 c 4.31473,0.0581 8.68881,0.86037 12.89341,2.4855 8.5297,3.29682 14.73646,9.3549 17.87015,16.47607 -8.01947,2.81033 -17.25038,2.90157 -25.77873,-0.39473 -4.2046,-1.62513 -7.84448,-3.92032 -10.82892,-6.68345 -3.07386,-2.84338 -5.45292,-6.18232 -7.04259,-9.79314 4.06612,-1.4248 8.44476,-2.15181 12.88668,-2.09025 z"
       id="path16-60-7-3" />
    <path
       style="fill:#80e5ff;fill-opacity:0.20737328;stroke-width:0.13904616"
       d="m 235.70374,128.11211 c 4.31477,0.0557 8.6894,0.85565 12.89513,2.47849 8.53198,3.29218 14.74294,9.34688 17.88156,16.46634 -8.01753,2.8147 -17.24837,2.91096 -25.77901,-0.38071 -4.20572,-1.62284 -7.84718,-3.91606 -10.83355,-6.67755 -3.07581,-2.84172 -5.4572,-6.17935 -7.04937,-9.78931 4.06513,-1.427 8.44327,-2.15639 12.88524,-2.09726 z"
       id="path16-3-6-5-6" />
  </g>
</svg>
