<?xml version="1.0" encoding="UTF-8" standalone="no"?>
<svg
   xmlns:dc="http://purl.org/dc/elements/1.1/"
   xmlns:cc="http://creativecommons.org/ns#"
   xmlns:rdf="http://www.w3.org/1999/02/22-rdf-syntax-ns#"
   xmlns:svg="http://www.w3.org/2000/svg"
   xmlns="http://www.w3.org/2000/svg"
   id="svg8"
   version="1.1"
   viewBox="0 0 53.276291 54.596973"
   height="54.596973mm"
   width="53.276291mm">
  <defs
     id="defs2" />
  <metadata
     id="metadata5">
    <rdf:RDF>
      <cc:Work
         rdf:about="">
        <dc:format>image/svg+xml</dc:format>
        <dc:type
           rdf:resource="http://purl.org/dc/dcmitype/StillImage" />
        <dc:title></dc:title>
      </cc:Work>
    </rdf:RDF>
  </metadata>
  <g
     transform="translate(1.5531149,2.407941)"
     id="layer1">
    <g
       transform="translate(-29.482142,-103.56547)"
       id="g3728">
      <path
         id="path3736"
         d="m 51.892617,155.51021 c -5.87999,-0.68128 -11.931937,-3.63389 -16.086224,-7.84811 -8.206491,-8.32489 -10.227515,-21.07173 -4.99174,-31.4835 2.819949,-5.60771 6.981754,-9.67566 12.635198,-12.35027 9.143859,-4.325911 19.539208,-3.35324 27.800397,2.60121 0.832503,0.60005 1.517113,1.27119 1.521354,1.49142 0.0093,0.4842 -7.130484,7.66937 -7.620958,7.66937 -0.190177,0 -0.872013,-0.36206 -1.515189,-0.80457 -0.643176,-0.44252 -1.974316,-1.12267 -2.958087,-1.51145 -1.620115,-0.64025 -2.125287,-0.7078 -5.360553,-0.71678 -4.322124,-0.012 -6.11536,0.4962 -9.232598,2.61643 -3.259062,2.2167 -5.84365,5.98962 -6.653274,9.7123 -0.474401,2.18132 -0.21084,6.83512 0.498948,8.81008 1.630084,4.53566 5.449062,8.37236 9.904021,9.95 2.294324,0.81248 7.310216,1.02282 9.724891,0.4078 4.307533,-1.09713 7.499273,-3.51403 9.13689,-6.91877 1.56541,-3.25463 2.008587,-3.02421 -5.816613,-3.02421 -3.69888,0 -6.913568,-0.0723 -7.14375,-0.16059 -0.361723,-0.13881 -0.418515,-0.85688 -0.418515,-5.29167 v -5.13107 h 12.574256 12.574257 l 0.267973,0.70482 c 0.147383,0.38765 0.337246,1.78663 0.421918,3.10885 0.393959,6.1521 -1.558304,13.10901 -5.052981,18.00637 -4.055436,5.68317 -10.700107,9.39125 -18.271882,10.19666 -2.696421,0.28682 -3.190687,0.28397 -5.937739,-0.0343 z"
         style="fill:#f7b90d;stroke-width:0.26458332" />
      <path
         id="path3734"
         d="m 51.892617,155.51021 c -5.787524,-0.67056 -11.840218,-3.59054 -15.939134,-7.68946 -1.801998,-1.802 -3.714233,-4.32912 -4.606605,-6.08788 l -0.630092,-1.24184 2.708868,-2.08559 c 1.489878,-1.14707 3.533344,-2.71209 4.541035,-3.47782 l 1.832167,-1.39224 0.708284,1.54466 c 2.011942,4.38776 6.000635,7.72116 10.698076,8.94053 2.05014,0.53218 6.430465,0.53335 8.487781,0.002 4.190939,-1.08186 7.385999,-3.52623 9.002696,-6.88747 1.56541,-3.25474 2.008587,-3.02432 -5.816613,-3.02432 -3.69888,0 -6.913568,-0.0723 -7.14375,-0.16059 -0.361723,-0.13881 -0.418515,-0.85688 -0.418515,-5.29167 v -5.13107 h 12.574256 12.574257 l 0.267973,0.70482 c 0.147383,0.38765 0.337246,1.78663 0.421918,3.10885 0.393959,6.1521 -1.558304,13.10901 -5.052981,18.00637 -4.055436,5.68317 -10.700107,9.39125 -18.271882,10.19666 -2.696421,0.28682 -3.190687,0.28397 -5.937739,-0.0343 z m -16.875412,-35.86104 -4.292318,-3.31094 0.626042,-1.23385 c 1.525749,-3.00704 4.783263,-6.65074 7.994419,-8.94218 2.099483,-1.49816 6.036409,-3.35712 8.563133,-4.0434 6.7427,-1.83137 14.425375,-0.9244 20.372917,2.40511 2.231745,1.24935 4.481624,2.95149 4.490204,3.39705 0.0093,0.4842 -7.130484,7.66937 -7.620958,7.66937 -0.190177,0 -0.872013,-0.36206 -1.515189,-0.80457 -0.643176,-0.44252 -1.974316,-1.12267 -2.958087,-1.51145 -1.620115,-0.64025 -2.125287,-0.7078 -5.360553,-0.71678 -3.091789,-0.009 -3.817372,0.0748 -5.398388,0.62048 -3.823593,1.31964 -7.382041,4.47728 -9.203676,8.16701 -0.449027,0.9095 -0.948896,1.64497 -1.11082,1.63437 -0.161925,-0.0106 -2.225951,-1.50921 -4.586726,-3.33022 z"
         style="fill:#4487f0;stroke-width:0.26458332" />
      <path
         id="path3732"
         d="m 52.274106,155.5234 c -4.324239,-0.44175 -8.7197,-2.05014 -12.517648,-4.58045 -3.124583,-2.0817 -6.879005,-6.1935 -8.40958,-9.21008 l -0.630092,-1.24184 2.708868,-2.08559 c 1.489878,-1.14707 3.528205,-2.70815 4.529616,-3.46907 l 1.820747,-1.38349 0.875086,1.8005 c 1.947695,4.00739 5.494778,7.09021 9.678742,8.41192 3.854235,1.21755 8.584141,0.89846 12.459136,-0.84054 l 1.529464,-0.68638 2.709082,2.0804 c 1.489993,1.14422 3.333705,2.56004 4.097134,3.14628 0.763429,0.58625 1.388507,1.26824 1.389062,1.51555 0.0011,0.45023 -2.20332,2.14684 -4.532934,3.48889 -4.038087,2.32626 -10.51056,3.58472 -15.706683,3.0539 z m -17.256901,-35.87423 -4.292318,-3.31094 0.626042,-1.23385 c 1.525749,-3.00704 4.783263,-6.65074 7.994419,-8.94218 2.099483,-1.49816 6.036409,-3.35712 8.563133,-4.0434 6.7427,-1.83137 14.425375,-0.9244 20.372917,2.40511 2.231745,1.24935 4.481624,2.95149 4.490204,3.39705 0.0093,0.4842 -7.130484,7.66937 -7.620958,7.66937 -0.190177,0 -0.872013,-0.36206 -1.515189,-0.80457 -0.643176,-0.44252 -1.974316,-1.12267 -2.958087,-1.51145 -1.620115,-0.64025 -2.125287,-0.7078 -5.360553,-0.71678 -3.091789,-0.009 -3.817372,0.0748 -5.398388,0.62048 -3.823593,1.31964 -7.382041,4.47728 -9.203676,8.16701 -0.449027,0.9095 -0.948896,1.64497 -1.11082,1.63437 -0.161925,-0.0106 -2.225951,-1.50921 -4.586726,-3.33022 z"
         style="fill:#e94436;stroke-width:0.26458332" />
      <path
         id="path3730"
         d="m 52.274106,155.5234 c -4.324239,-0.44175 -8.7197,-2.05014 -12.517648,-4.58045 -3.124583,-2.0817 -6.879005,-6.1935 -8.40958,-9.21008 l -0.630092,-1.24184 2.708868,-2.08559 c 1.489878,-1.14707 3.528205,-2.70815 4.529616,-3.46907 l 1.820747,-1.38349 0.875086,1.8005 c 1.947695,4.00739 5.494778,7.09021 9.678742,8.41192 3.854235,1.21755 8.584141,0.89846 12.459136,-0.84054 l 1.529464,-0.68638 2.709082,2.0804 c 1.489993,1.14422 3.333705,2.56004 4.097134,3.14628 0.763429,0.58625 1.388507,1.26824 1.389062,1.51555 0.0011,0.45023 -2.20332,2.14684 -4.532934,3.48889 -4.038087,2.32626 -10.51056,3.58472 -15.706683,3.0539 z"
         style="fill:#35a753;stroke-width:0.26458332" />
    </g>
  </g>
</svg>
